# xmcd
#
# Track frame offsets:
#	150
#	16291
#	32776
#	48076
#	60332
#	75723
#	91454
#	107194
#	119734
#	134963
#	152669
#	167274
#	182982
#	197480
#
# Disc length: 2851 seconds
#
# Revision: 1
# Processed by: cddbd v1.5.2PL0 Copyright (c) Steve Scherf et al.
# Submitted via: audiograbber 1.83.01
#
DISCID=b80b210e
DTITLE=Contrazt - Kan du prøve å forstå
DYEAR=1900
DGENRE=
TTITLE0=Peders Datter
TTITLE1=Å ha en venn som deg
TTITLE2=Kan du prøve å forstå
TTITLE3=Om engler fins
TTITLE4=Gamle væger
TTITLE5=Drømmer
TTITLE6=Livets melodi
TTITLE7=Mer enn en venn
TTITLE8=Jeg lengter hjem
TTITLE9=I mine tanker
TTITLE10=Sol og sommer
TTITLE11=En dag
TTITLE12=Hvem
TTITLE13=Du er den jeg trenger
EXTD=
EXTT0=
EXTT1=
EXTT2=
EXTT3=
EXTT4=
EXTT5=
EXTT6=
EXTT7=
EXTT8=
EXTT9=
EXTT10=
EXTT11=
EXTT12=
EXTT13=
PLAYORDER=
